<?xml version="1.0" standalone="no"?>
<!DOCTYPE svg PUBLIC "-//W3C//DTD SVG 20010904//EN"
 "http://www.w3.org/TR/2001/REC-SVG-20010904/DTD/svg10.dtd">
<svg version="1.0" xmlns="http://www.w3.org/2000/svg"
 width="1525.000000pt" height="1525.000000pt" viewBox="0 0 1525.000000 1525.000000"
 preserveAspectRatio="xMidYMid meet">
<metadata>
Created by potrace 1.11, written by Peter Selinger 2001-2013
</metadata>
<g transform="translate(0.000000,1525.000000) scale(0.100000,-0.100000)"
fill="#000000" stroke="none">
<path d="M7318 15245 c-2 -1 -64 -6 -138 -9 -74 -4 -153 -9 -175 -11 -22 -2
-69 -7 -105 -10 -36 -4 -81 -8 -100 -10 -19 -2 -64 -7 -100 -10 -36 -4 -67 -8
-70 -10 -3 -2 -30 -6 -60 -9 -30 -3 -66 -8 -80 -10 -14 -3 -83 -14 -155 -26
-71 -12 -173 -31 -225 -42 -52 -11 -104 -21 -115 -23 -25 -3 -349 -83 -390
-96 -16 -5 -100 -30 -185 -55 -225 -66 -618 -207 -765 -274 -11 -5 -83 -37
-160 -71 -180 -80 -485 -236 -645 -328 -69 -40 -145 -85 -170 -99 -25 -14 -56
-33 -70 -42 -14 -10 -79 -52 -145 -95 -196 -127 -474 -328 -601 -434 -17 -14
-51 -42 -75 -61 -164 -132 -359 -310 -559 -510 -195 -195 -305 -316 -455 -495
-27 -33 -52 -62 -55 -65 -18 -17 -242 -309 -299 -390 -480 -681 -819 -1359
-1064 -2130 -31 -96 -65 -208 -76 -247 l-19 -73 1414 0 1414 0 0 -600 0 -600
-370 0 -370 0 -2 273 -3 272 -585 0 -585 0 -3 -452 -2 -453 32 0 c668 -6 1008
-7 1491 -9 l587 -1 1 -352 0 -353 25 69 c60 172 140 294 283 428 183 172 376
247 651 251 l114 2 15 40 c78 217 183 385 335 539 295 298 651 433 1111 421
347 -9 622 -112 876 -328 213 -182 342 -405 418 -722 l19 -80 3 140 c2 77 6
497 7 933 l4 792 -306 0 -306 0 0 350 0 350 781 0 782 0 -7 -1337 c-3 -736 -9
-2234 -12 -3329 l-7 -1991 571 -7 c314 -4 575 -5 579 -3 6 4 9 1501 4 1627 -1
13 -32 15 -223 14 -123 0 -229 2 -235 4 -10 3 -13 83 -13 353 l0 349 370 0
371 0 -36 32 c-59 52 -77 97 -69 177 5 57 3 76 -15 116 -11 26 -21 59 -21 72
0 33 75 145 138 207 37 36 55 64 68 105 9 30 25 69 35 86 37 66 42 99 30 238
-6 73 -14 168 -17 212 -2 44 -11 139 -19 210 -8 72 -17 164 -20 205 -29 372
-42 440 -81 440 -25 0 -25 21 1 117 14 54 42 170 61 258 19 88 47 202 61 255
40 151 40 147 1 155 -18 4 -49 14 -69 22 -45 17 -58 53 -65 178 -5 79 -3 100
20 170 14 44 26 97 26 118 0 24 9 52 25 75 14 20 25 51 25 69 0 17 5 35 10 38
6 3 10 18 10 32 0 14 23 65 51 114 47 82 55 90 93 100 22 5 49 12 59 15 21 7
23 52 2 60 -8 4 -12 10 -9 15 3 5 1 9 -4 9 -5 0 -9 27 -10 60 0 43 3 58 11 53
7 -4 6 1 -2 10 -11 14 -11 18 2 23 9 3 13 12 11 19 -3 7 0 16 5 20 6 3 8 11 5
17 -4 6 -2 13 4 17 7 4 13 17 15 30 2 12 9 26 16 30 7 5 12 11 12 15 -1 3 0 7
0 9 5 10 10 86 11 157 0 50 5 88 12 92 7 5 7 8 -3 8 -11 0 -11 3 -1 15 6 8 9
18 6 23 -3 5 5 15 19 22 15 8 21 18 18 28 -4 10 -2 13 5 8 7 -4 12 -2 12 4 0
6 5 8 10 5 6 -3 10 -1 10 4 0 6 7 11 16 11 8 0 13 4 10 9 -7 11 22 23 35 15 5
-3 9 0 9 7 0 7 3 10 6 6 4 -3 18 0 33 7 28 14 69 15 88 3 6 -4 14 -3 18 3 3 5
11 10 16 10 6 0 7 -5 3 -12 -5 -7 -3 -8 7 -2 21 13 39 14 39 1 0 -5 3 -8 6 -4
6 6 104 -40 104 -49 0 -3 -4 -2 -10 1 -5 3 -10 4 -10 0 0 -3 12 -10 26 -15 23
-9 25 -12 13 -28 -7 -9 -10 -14 -5 -10 10 8 66 -48 66 -67 0 -8 8 -19 18 -24
13 -8 14 -10 2 -11 -12 0 -13 -2 -1 -9 7 -5 14 -23 15 -40 0 -17 5 -31 10 -31
4 0 3 -7 -4 -16 -11 -12 -11 -15 0 -12 7 2 19 -8 27 -22 7 -14 13 -20 13 -15
0 6 4 4 9 -4 5 -8 8 -23 6 -33 -2 -10 -1 -17 3 -14 12 7 27 -17 30 -48 2 -17
11 -36 20 -43 9 -7 12 -13 6 -13 -11 0 -11 -21 1 -70 17 -72 20 -109 11 -147
-5 -24 -12 -43 -16 -43 -3 0 -6 -12 -5 -27 0 -25 9 -32 83 -68 l82 -39 0 -98
0 -98 1358 0 c746 0 1415 0 1485 0 l129 0 -6 -642 c-3 -354 -9 -1223 -12
-1932 -5 -1074 -4 -1287 8 -1280 7 4 218 175 468 378 l455 371 -288 3 -287 2
2 258 3 257 585 0 c322 0 590 3 596 7 15 10 17 65 18 453 0 302 -8 592 -19
635 -2 8 -6 56 -10 105 -3 50 -8 101 -10 115 -5 37 -14 108 -21 165 -7 66 -9
74 -39 255 -34 205 -78 419 -121 588 -20 75 -37 147 -40 160 -7 37 -120 399
-159 512 -298 857 -777 1699 -1358 2385 -302 356 -657 709 -987 979 -52 43
-104 86 -115 95 -11 9 -74 57 -140 107 -934 708 -2037 1198 -3175 1409 -14 3
-36 7 -50 10 -64 13 -167 30 -240 40 -25 3 -72 10 -105 15 -54 9 -182 23 -300
35 -22 2 -80 7 -130 11 -49 3 -110 8 -135 10 -53 5 -767 14 -772 9z"/>
<path d="M10683 9115 c-17 -55 -68 -130 -106 -157 -43 -30 -46 -35 -36 -77 11
-49 19 -145 24 -276 3 -68 14 -152 30 -220 38 -167 40 -159 -57 -183 -46 -11
-102 -23 -126 -27 -24 -4 -45 -12 -47 -18 -2 -7 -6 -71 -9 -143 -11 -276 -114
-593 -294 -904 -60 -105 -70 -156 -76 -400 -6 -225 -11 -250 -60 -292 -18 -14
-40 -46 -50 -70 -15 -36 -28 -65 -64 -140 -2 -5 41 -8 96 -8 66 0 102 -4 104
-11 2 -7 2 -180 1 -385 -2 -206 -1 -374 1 -374 3 0 15 33 27 73 62 212 219
437 394 567 163 120 322 170 546 170 l119 0 0 140 0 140 -205 0 -205 0 0 313
0 312 635 0 c628 0 635 0 636 -20 0 -11 2 -477 3 -1035 2 -558 3 -1021 4
-1027 2 -10 93 -13 421 -13 231 0 422 3 424 8 3 4 8 707 11 1562 4 855 9 1765
12 2023 l5 467 -641 0 c-352 0 -640 -2 -640 -5 0 -3 16 -40 36 -82 36 -78 179
-416 312 -738 103 -249 118 -314 101 -435 -14 -96 -58 -180 -132 -254 -150
-151 -354 -185 -542 -92 -121 61 -208 163 -247 289 -26 87 -21 219 12 317 19
57 202 471 379 859 34 74 61 135 61 137 0 2 -189 4 -419 4 l-420 0 -3 23 c-2
17 -6 13 -15 -18z"/>
<path d="M115 8939 c-4 -11 -8 -32 -10 -47 -2 -15 -6 -40 -9 -57 -10 -62 -17
-111 -21 -143 -2 -18 -9 -69 -15 -115 -16 -126 -18 -146 -25 -227 -3 -41 -8
-88 -10 -105 -26 -200 -26 -1018 -1 -1235 3 -19 7 -71 11 -115 3 -44 8 -87 10
-95 2 -8 6 -45 10 -82 3 -37 8 -77 10 -90 14 -94 19 -125 20 -138 5 -57 18
-121 26 -126 5 -3 18 -3 29 1 19 6 19 29 17 1297 -2 1210 -3 1291 -19 1294
-10 1 -20 -6 -23 -17z"/>
<path d="M5603 8509 c-218 -36 -363 -188 -423 -441 -12 -50 -19 -93 -16 -96 8
-7 1125 -6 1132 1 12 11 -37 170 -73 240 -49 95 -165 212 -248 251 -102 48
-248 66 -372 45z"/>
<path d="M5153 7418 c8 -93 39 -202 78 -280 100 -198 378 -344 632 -331 178 9
350 90 525 247 40 36 76 66 81 66 4 0 148 -45 319 -100 170 -55 317 -100 326
-100 14 0 16 32 16 285 l0 285 -991 0 -992 0 6 -72z"/>
<path d="M1598 7392 l-428 -2 0 -513 0 -514 233 -1 c127 -1 262 -1 300 -2 l67
0 0 -325 0 -325 -764 0 -764 0 35 -122 c59 -214 184 -597 223 -683 5 -11 20
-49 34 -85 169 -441 450 -981 719 -1385 138 -206 307 -439 416 -571 14 -17 33
-40 41 -50 231 -290 590 -661 895 -927 50 -44 101 -89 115 -101 14 -12 70 -58
125 -101 55 -44 102 -82 105 -85 18 -20 351 -258 500 -357 58 -39 291 -182
350 -216 507 -287 916 -471 1425 -639 232 -77 242 -80 506 -148 169 -44 475
-110 574 -125 22 -3 47 -7 55 -10 8 -2 38 -6 65 -10 28 -3 59 -8 70 -10 21 -5
37 -7 170 -24 101 -13 148 -18 340 -36 292 -26 1021 -27 1238 0 18 2 64 7 102
10 76 6 143 13 190 20 17 2 68 9 115 15 143 19 151 20 290 45 125 22 153 28
220 41 14 3 34 7 45 9 48 9 203 45 216 49 8 3 25 7 39 10 14 2 45 10 70 17 25
7 50 13 55 14 56 12 280 80 445 134 258 86 533 193 725 281 890 410 1599 902
2265 1571 287 287 472 500 704 808 166 220 476 688 476 719 0 6 4 12 8 14 19
8 230 406 332 627 138 301 132 277 88 328 -19 21 -229 272 -468 558 -238 286
-443 531 -456 545 l-24 25 0 -423 0 -422 165 0 165 0 0 -295 0 -295 -1660 0
-1660 0 0 310 0 310 205 0 205 0 0 138 0 137 -77 -2 c-207 -8 -368 -40 -488
-97 -194 -92 -344 -329 -417 -658 -17 -79 -21 -139 -25 -405 l-5 -313 271 0
271 0 0 -350 0 -350 -568 0 c-313 0 -1103 3 -1755 7 l-1187 6 0 179 0 179 -60
-43 c-389 -278 -808 -398 -1250 -358 -442 40 -778 193 -1070 490 -229 232
-365 487 -427 805 -25 129 -25 433 1 570 60 322 206 589 449 821 227 217 479
355 797 436 l45 11 -98 13 c-564 74 -979 391 -1141 872 l-33 97 -84 -2 c-182
-5 -358 -41 -467 -94 -154 -75 -295 -263 -366 -487 -46 -146 -57 -239 -63
-514 l-6 -258 274 -2 274 -3 1 -310 c0 -170 -1 -315 -3 -321 -3 -9 -252 -12
-954 -12 l-949 0 0 324 0 324 250 0 250 0 0 758 0 758 -232 0 c-128 -1 -425
-2 -660 -4z"/>
<path d="M7080 6828 c-50 -74 -189 -217 -273 -282 -142 -108 -334 -200 -507
-242 -85 -21 -109 -34 -61 -34 47 0 217 -36 314 -66 167 -52 368 -163 500
-277 32 -27 60 -48 62 -46 5 6 11 999 5 999 -3 0 -21 -24 -40 -52z"/>
<path d="M9630 6458 c-28 -11 -63 -98 -48 -120 4 -7 8 -41 8 -75 0 -59 2 -63
23 -63 21 0 22 4 22 78 0 65 4 86 28 131 15 29 27 55 27 57 0 7 -34 2 -60 -8z"/>
<path d="M15014 6259 c-66 -56 -181 -154 -256 -218 -75 -64 -137 -120 -137
-124 -1 -9 317 -390 329 -395 5 -2 13 16 19 40 5 24 28 115 50 203 23 88 43
174 46 190 3 17 8 38 11 47 3 9 7 27 9 40 23 123 47 250 54 281 5 20 5 37 1
37 -4 0 -61 -46 -126 -101z"/>
<path d="M5910 5500 c-120 -9 -182 -26 -285 -75 -199 -96 -329 -273 -380 -520
-19 -95 -22 -292 -6 -385 46 -259 186 -463 384 -560 115 -56 181 -71 338 -77
214 -8 357 29 522 137 217 143 313 374 301 721 -8 235 -66 400 -183 522 -117
123 -317 218 -491 232 -36 3 -76 7 -90 9 -14 1 -63 -1 -110 -4z"/>
</g>
</svg>
